<svg width="16" height="16" viewBox="0 0 16 16" fill="none" xmlns="http://www.w3.org/2000/svg">
<path fill-rule="evenodd" clip-rule="evenodd" d="M10.6666 3.33333H5.33331C4.96512 3.33333 4.66665 3.63181 4.66665 4V6.66667C4.66665 8.50762 6.15903 10 7.99998 10C9.84093 10 11.3333 8.50762 11.3333 6.66667V4C11.3333 3.63181 11.0348 3.33333 10.6666 3.33333ZM5.33331 2C4.22874 2 3.33331 2.89543 3.33331 4V6.66667C3.33331 9.244 5.42265 11.3333 7.99998 11.3333C10.5773 11.3333 12.6666 9.244 12.6666 6.66667V4C12.6666 2.89543 11.7712 2 10.6666 2H5.33331Z" fill="#FCFCFD"/>
<path fill-rule="evenodd" clip-rule="evenodd" d="M0.666687 5.3335C0.666687 4.22893 1.56212 3.3335 2.66669 3.3335H4.66669V8.66683H3.33335C1.86059 8.66683 0.666687 7.47292 0.666687 6.00016V5.3335ZM2.66669 4.66683H3.33335V7.3335C2.59697 7.3335 2.00002 6.73654 2.00002 6.00016V5.3335C2.00002 4.96531 2.2985 4.66683 2.66669 4.66683Z" fill="#FCFCFD"/>
<path fill-rule="evenodd" clip-rule="evenodd" d="M15.3334 5.3335C15.3334 4.22893 14.4379 3.3335 13.3334 3.3335H11.3334V8.66683H12.6667C14.1394 8.66683 15.3334 7.47292 15.3334 6.00016V5.3335ZM13.3334 4.66683H12.6667V7.3335C13.4031 7.3335 14 6.73654 14 6.00016V5.3335C14 4.96531 13.7015 4.66683 13.3334 4.66683Z" fill="#FCFCFD"/>
<path d="M7.99998 10C7.63179 10 7.33331 10.2985 7.33331 10.6667V12.6667H5.99998C5.63179 12.6667 5.33331 12.9651 5.33331 13.3333C5.33331 13.7015 5.63179 14 5.99998 14H9.99998C10.3682 14 10.6666 13.7015 10.6666 13.3333C10.6666 12.9651 10.3682 12.6667 9.99998 12.6667H8.66665V10.6667C8.66665 10.2985 8.36817 10 7.99998 10Z" fill="#FCFCFD"/>
</svg>
