<svg width="26" height="28" viewBox="0 0 26 28" fill="none" xmlns="http://www.w3.org/2000/svg">
<path d="M21.8923 5.97927L15.5 2.28868C13.953 1.39551 12.047 1.39551 10.5 2.28868L4.1077 5.97927C2.56069 6.87244 1.6077 8.52307 1.6077 10.3094V17.6906C1.6077 19.4769 2.56069 21.1276 4.1077 22.0207L10.5 25.7113C12.047 26.6045 13.953 26.6045 15.5 25.7113L21.8923 22.0207C23.4393 21.1276 24.3923 19.4769 24.3923 17.6906V10.3094C24.3923 8.52307 23.4393 6.87244 21.8923 5.97927Z" fill="#45B36B" stroke="#FCFCFD" stroke-width="2"/>
<path d="M12.1022 9.56319C12.2067 9.38022 12.0519 9.15792 11.844 9.19256L10.8723 9.35451C10.7238 9.37927 10.6307 9.52873 10.674 9.67295L10.9766 10.6818C11.0398 10.8923 11.3242 10.9248 11.4332 10.734L12.1022 9.56319Z" fill="#FCFCFD"/>
<path d="M9.81688 10.296C9.76114 10.1102 9.52512 10.0567 9.39853 10.2037C9.00597 10.6594 8.63521 11.1383 8.25126 11.599C8.2299 11.6246 8.20951 11.6508 8.19011 11.6775C8.08599 11.8206 8.20428 12.0002 8.38129 12.0002H9.99214C10.1596 12.0002 10.2797 11.8388 10.2316 11.6784L9.81688 10.296Z" fill="#FCFCFD"/>
<path d="M8.30794 13C8.13978 13 8.02038 13.1639 8.10458 13.3095C8.1316 13.3562 8.16136 13.4018 8.19385 13.4461L11.7905 18.3506C11.8506 18.4326 11.917 18.5064 11.9884 18.5719C12.1437 18.7145 12.3383 18.5502 12.2762 18.3487L10.6824 13.1764C10.6501 13.0715 10.5532 13 10.4435 13H8.30794Z" fill="#FCFCFD"/>
<path d="M13.7237 18.3488C13.6616 18.5503 13.8562 18.7147 14.0116 18.5721C14.083 18.5065 14.1495 18.4327 14.2097 18.3506L17.8063 13.4461C17.8388 13.4018 17.8685 13.3562 17.8955 13.3095C17.9797 13.1639 17.8603 13 17.6922 13H15.5566C15.4469 13 15.35 13.0715 15.3177 13.1764L13.7237 18.3488Z" fill="#FCFCFD"/>
<path d="M17.6191 11.9998C17.7961 11.9998 17.9144 11.8202 17.8103 11.6771C17.7908 11.6504 17.7705 11.6242 17.7491 11.5986C17.3651 11.1378 16.9944 10.659 16.6018 10.2032C16.4752 10.0562 16.2392 10.1097 16.1834 10.2955L15.7687 11.678C15.7206 11.8384 15.8407 11.9998 16.0082 11.9998H17.6191Z" fill="#FCFCFD"/>
<path d="M15.1277 9.35453C15.2762 9.37928 15.3693 9.52874 15.3261 9.67296L15.0234 10.6819C14.9603 10.8924 14.6759 10.9249 14.5669 10.7341L13.8978 9.5632C13.7932 9.38022 13.9481 9.15792 14.1559 9.19256L15.1277 9.35453Z" fill="#FCFCFD"/>
<path d="M13 10.0078L13.9247 11.626C14.02 11.7927 13.8996 12 13.7077 12H12.2924C12.1005 12 11.9801 11.7927 12.0754 11.626L13 10.0078Z" fill="#FCFCFD"/>
<path d="M13.2389 16.5232C13.1665 16.7586 12.8334 16.7586 12.761 16.5232L11.7765 13.3235C11.727 13.1628 11.8472 13 12.0154 13H13.9845C14.1527 13 14.2729 13.1628 14.2234 13.3235L13.2389 16.5232Z" fill="#FCFCFD"/>
</svg>
