<svg width="16" height="16" viewBox="0 0 16 16" fill="none" xmlns="http://www.w3.org/2000/svg">
<path fill-rule="evenodd" clip-rule="evenodd" d="M10.6666 8.00016C10.6666 9.47292 9.47274 10.6668 7.99998 10.6668C6.52722 10.6668 5.33331 9.47292 5.33331 8.00016C5.33331 6.5274 6.52722 5.3335 7.99998 5.3335C9.47274 5.3335 10.6666 6.5274 10.6666 8.00016ZM9.33331 8.00016C9.33331 8.73654 8.73636 9.3335 7.99998 9.3335C7.2636 9.3335 6.66665 8.73654 6.66665 8.00016C6.66665 7.26378 7.2636 6.66683 7.99998 6.66683C8.73636 6.66683 9.33331 7.26378 9.33331 8.00016Z" fill="#FCFCFD"/>
<path fill-rule="evenodd" clip-rule="evenodd" d="M14.6666 8.00016C14.6666 11.6821 11.6819 14.6668 7.99998 14.6668C4.31808 14.6668 1.33331 11.6821 1.33331 8.00016C1.33331 4.31826 4.31808 1.3335 7.99998 1.3335C11.6819 1.3335 14.6666 4.31826 14.6666 8.00016ZM13.3333 8.00016C13.3333 10.9457 10.9455 13.3335 7.99998 13.3335C5.05446 13.3335 2.66665 10.9457 2.66665 8.00016C2.66665 5.05464 5.05446 2.66683 7.99998 2.66683C10.9455 2.66683 13.3333 5.05464 13.3333 8.00016Z" fill="#FCFCFD"/>
<path d="M4.03413 3.12253C4.15056 2.77324 4.52811 2.58446 4.8774 2.7009L6.8774 3.36756C7.2267 3.48399 7.41547 3.86154 7.29904 4.21084C7.18261 4.56013 6.80506 4.74891 6.45576 4.63247L4.45576 3.96581C4.10647 3.84938 3.9177 3.47183 4.03413 3.12253Z" fill="#FCFCFD"/>
<path d="M4.07026 7.03517C4.23492 6.70585 4.63537 6.57237 4.96469 6.73703L6.29802 7.4037C6.62734 7.56836 6.76083 7.96881 6.59617 8.29813C6.43151 8.62744 6.03106 8.76093 5.70174 8.59627L4.36841 7.9296C4.03909 7.76494 3.9056 7.36449 4.07026 7.03517Z" fill="#FCFCFD"/>
<path d="M9.13797 13.1381C9.39832 12.8777 9.39832 12.4556 9.13797 12.1953C8.87762 11.9349 8.45551 11.9349 8.19516 12.1953L7.19516 13.1953C6.93481 13.4556 6.93481 13.8777 7.19516 14.1381C7.45551 14.3984 7.87762 14.3984 8.13797 14.1381L9.13797 13.1381Z" fill="#FCFCFD"/>
<path d="M9.19516 9.19526C9.45551 8.93491 9.87762 8.93491 10.138 9.19526L10.4713 9.5286C10.7317 9.78894 10.7317 10.2111 10.4713 10.4714C10.211 10.7318 9.78884 10.7318 9.52849 10.4714L9.19516 10.1381C8.93481 9.87772 8.93481 9.45561 9.19516 9.19526Z" fill="#FCFCFD"/>
<path d="M5.26283 10.9648C5.42749 10.6355 5.29401 10.235 4.96469 10.0704C4.63537 9.90571 4.23492 10.0392 4.07026 10.3685L3.4036 11.7018C3.23894 12.0312 3.37242 12.4316 3.70174 12.5963C4.03106 12.7609 4.43151 12.6274 4.59617 12.2981L5.26283 10.9648Z" fill="#FCFCFD"/>
<path d="M14.5962 7.70184C14.7608 8.03116 14.6273 8.43161 14.298 8.59627L12.9647 9.26293C12.6354 9.42759 12.2349 9.29411 12.0703 8.96479C11.9056 8.63547 12.0391 8.23502 12.3684 8.07036L13.7017 7.4037C14.0311 7.23904 14.4315 7.37252 14.5962 7.70184Z" fill="#FCFCFD"/>
<path d="M10.6324 5.54417C10.7488 5.19487 10.56 4.81733 10.2107 4.7009C9.86144 4.58446 9.48389 4.77324 9.36746 5.12253L9.03413 6.12253C8.9177 6.47183 9.10647 6.84937 9.45576 6.96581C9.80506 7.08224 10.1826 6.89347 10.299 6.54417L10.6324 5.54417Z" fill="#FCFCFD"/>
</svg>
