<svg width="16" height="16" viewBox="0 0 16 16" fill="none" xmlns="http://www.w3.org/2000/svg">
<path fill-rule="evenodd" clip-rule="evenodd" d="M8.00004 14.6668C11.6819 14.6668 14.6667 11.6821 14.6667 8.00016C14.6667 4.31826 11.6819 1.3335 8.00004 1.3335C4.31814 1.3335 1.33337 4.31826 1.33337 8.00016C1.33337 11.6821 4.31814 14.6668 8.00004 14.6668ZM12.2132 11.2706C12.9153 10.3675 13.3334 9.23266 13.3334 8.00016C13.3334 5.28042 11.2976 3.03616 8.66671 2.70809V5.41751C9.81686 5.71354 10.6667 6.7576 10.6667 8.00016C10.6667 8.49473 10.5321 8.95785 10.2975 9.35487L12.2132 11.2706ZM11.2704 12.2134L9.35462 10.2977C8.95763 10.5322 8.49455 10.6668 8.00004 10.6668C7.50553 10.6668 7.04245 10.5322 6.64546 10.2977L4.72967 12.2134C5.63278 12.9155 6.76759 13.3335 8.00004 13.3335C9.23249 13.3335 10.3673 12.9155 11.2704 12.2134ZM5.33337 8.00016C5.33337 8.49473 5.46801 8.95785 5.70262 9.35487L3.78685 11.2706C3.08478 10.3675 2.66671 9.23266 2.66671 8.00016C2.66671 5.28042 4.7025 3.03616 7.33337 2.70809V5.41751C6.18322 5.71354 5.33337 6.7576 5.33337 8.00016ZM8.00004 9.3335C8.73642 9.3335 9.33337 8.73654 9.33337 8.00016C9.33337 7.26378 8.73642 6.66683 8.00004 6.66683C7.26366 6.66683 6.66671 7.26378 6.66671 8.00016C6.66671 8.73654 7.26366 9.3335 8.00004 9.3335Z" fill="#FCFCFD"/>
</svg>
